<?xml version="1.0" standalone="no"?>
<!DOCTYPE svg PUBLIC "-//W3C//DTD SVG 20010904//EN"
 "http://www.w3.org/TR/2001/REC-SVG-20010904/DTD/svg10.dtd">
<svg version="1.0" xmlns="http://www.w3.org/2000/svg"
 width="512.000000pt" height="512.000000pt" viewBox="0 0 512.000000 512.000000"
 preserveAspectRatio="xMidYMid meet">
<metadata>
Created by potrace 1.14, written by Peter Selinger 2001-2017
</metadata>
<g transform="translate(0.000000,512.000000) scale(0.100000,-0.100000)"
fill="#000000" stroke="none">
<path d="M788 2985 c-2 -2 -25 -6 -53 -9 -148 -16 -361 -109 -457 -199 -16
-14 -28 -24 -28 -21 0 13 -107 -109 -145 -166 -67 -101 -97 -181 -101 -275 -3
-68 0 -88 20 -130 24 -51 80 -115 102 -115 7 0 14 -3 16 -7 5 -13 89 -53 109
-53 10 0 19 -5 19 -12 0 -6 3 -9 6 -5 3 3 18 1 32 -4 15 -6 44 -13 65 -16 46
-6 72 -11 72 -13 0 -3 90 -12 135 -13 25 -1 48 -6 52 -12 5 -6 8 -5 8 2 0 8 7
10 23 5 12 -4 48 -7 80 -7 l59 1 23 -46 c12 -25 46 -101 76 -170 29 -69 65
-149 81 -178 15 -30 28 -58 28 -64 0 -5 13 -29 30 -52 16 -24 26 -46 23 -50
-4 -3 0 -6 7 -6 7 0 11 -3 7 -6 -3 -4 -1 -12 6 -20 30 -34 37 -44 30 -44 -4 0
-3 -4 2 -8 14 -10 67 -82 60 -82 -6 0 30 -43 81 -96 17 -18 29 -36 26 -39 -3
-3 0 -5 5 -5 6 0 31 -21 55 -47 94 -101 122 -123 213 -167 39 -18 78 -36 87
-39 15 -5 16 -11 6 -39 -6 -18 -14 -37 -18 -43 -4 -5 -11 -26 -15 -45 -4 -19
-12 -44 -18 -55 -6 -11 -11 -31 -13 -45 -1 -14 -5 -47 -9 -75 -13 -88 -8 -285
7 -285 4 0 8 -9 8 -20 0 -35 48 -117 83 -144 63 -48 110 -59 273 -62 204 -4
285 16 346 84 32 36 73 126 63 141 -3 6 -2 11 3 11 11 0 11 -1 15 171 3 81 7
152 11 158 4 6 4 11 -1 11 -4 0 -8 30 -7 67 l1 68 279 0 c174 0 282 -4 286
-10 5 -7 8 -7 8 0 0 11 101 11 119 1 6 -4 11 -4 11 1 0 4 107 8 238 8 130 0
244 3 253 7 24 11 25 -2 24 -204 0 -98 3 -178 8 -178 4 0 3 -9 -3 -20 -6 -12
-7 -20 -1 -20 5 0 8 -8 6 -18 -1 -9 0 -21 3 -27 3 -5 7 -20 8 -33 4 -33 53
-132 65 -132 6 0 7 -4 4 -10 -3 -5 -1 -10 5 -10 6 0 23 -9 38 -20 27 -20 36
-23 117 -40 57 -12 285 -9 342 4 57 14 105 38 133 68 25 28 63 105 68 138 1
14 5 32 9 40 12 27 11 244 -1 259 -6 8 -9 15 -7 15 6 1 -10 99 -17 111 -4 6
-8 18 -9 28 -2 10 -17 54 -34 98 -30 79 -32 109 -7 109 7 0 25 11 40 25 15 14
30 25 33 25 12 0 66 59 88 97 12 21 29 40 37 42 26 6 103 0 180 -15 14 -2 39
-6 55 -8 17 -2 30 -5 30 -6 0 -1 12 -4 65 -14 14 -2 25 -5 25 -6 0 -1 11 -3
25 -5 50 -7 80 -14 91 -21 8 -5 9 -3 4 7 -7 11 -6 12 6 3 21 -17 91 -9 106 12
18 24 9 77 -22 130 -21 36 -125 148 -166 180 -37 27 -170 104 -182 104 -8 0
-17 3 -21 7 -3 4 -12 8 -19 9 -7 2 -34 9 -62 16 -27 8 -60 13 -72 12 -13 -1
-23 4 -24 10 -1 24 -8 73 -15 106 -4 19 -8 42 -10 50 -9 53 -32 136 -56 205
-15 44 -29 84 -31 89 -13 48 -152 308 -169 314 -4 2 -8 10 -8 18 0 8 -4 14
-10 14 -5 0 -10 5 -10 11 0 10 -50 76 -101 134 -51 58 -161 163 -211 203 -32
25 -58 49 -58 54 0 5 -4 7 -9 4 -5 -3 -21 6 -35 19 -15 14 -34 25 -42 25 -7 0
-14 5 -14 10 0 6 -7 10 -15 10 -8 0 -15 3 -15 8 0 4 -15 13 -32 21 -18 8 -35
17 -38 20 -4 5 -96 52 -110 56 -8 3 -44 16 -65 25 -58 24 -184 62 -217 66 -9
0 -23 4 -32 7 -16 7 -42 10 -171 26 -66 8 -280 7 -335 -2 -43 -7 -125 -21
-130 -22 -3 -1 -32 -7 -65 -14 -33 -7 -66 -18 -72 -23 -7 -6 -13 -8 -13 -4 0
5 -17 0 -95 -30 -11 -4 -23 -6 -27 -6 -5 1 -8 -3 -8 -10 0 -6 -2 -9 -6 -6 -3
3 -32 -7 -65 -23 -32 -16 -63 -29 -68 -29 -5 0 -14 -7 -21 -15 -7 -8 -16 -12
-21 -9 -5 3 -9 1 -9 -4 0 -4 -19 -19 -42 -32 -24 -13 -46 -28 -50 -34 -4 -6
-8 -8 -8 -4 0 5 -12 -2 -26 -15 -14 -12 -27 -21 -30 -19 -2 1 -12 -6 -23 -15
-42 -40 -92 -83 -96 -83 -10 0 -177 -179 -209 -224 -11 -15 -27 -36 -36 -46
-9 -10 -25 -35 -35 -54 -11 -20 -23 -36 -27 -36 -5 0 -8 -6 -8 -14 0 -7 -7
-19 -15 -26 -8 -7 -15 -20 -15 -30 0 -10 -7 -21 -16 -24 -8 -3 -12 -10 -9 -16
3 -5 1 -10 -5 -10 -6 0 -8 -4 -5 -10 3 -5 1 -10 -4 -10 -6 0 -10 -3 -9 -7 1
-9 -40 -101 -42 -93 -8 25 -11 63 -15 170 -7 177 -17 289 -28 320 -2 8 -15 47
-27 85 -23 76 -72 178 -95 202 -8 8 -15 18 -15 22 0 4 -27 35 -60 68 -98 98
-201 141 -337 141 -29 -1 -54 -2 -55 -3z"/>
</g>
</svg>
