<?xml version="1.0" standalone="no"?>
<!DOCTYPE svg PUBLIC "-//W3C//DTD SVG 20010904//EN"
 "http://www.w3.org/TR/2001/REC-SVG-20010904/DTD/svg10.dtd">
<svg version="1.0" xmlns="http://www.w3.org/2000/svg"
 width="420.000000pt" height="420.000000pt" viewBox="0 0 420.000000 420.000000"
 preserveAspectRatio="xMidYMid meet">
<metadata>
Created by potrace 1.14, written by Peter Selinger 2001-2017
</metadata>
<g transform="translate(0.000000,420.000000) scale(0.100000,-0.100000)"
fill="#000000" stroke="none">
<path d="M1840 3422 c-87 -9 -112 -16 -143 -37 -22 -14 -39 -19 -44 -14 -25
25 -146 27 -235 3 -137 -35 -260 -123 -378 -270 -31 -39 -117 -189 -121 -212
-1 -4 -5 -16 -9 -27 -55 -148 -49 -351 18 -546 18 -52 28 -101 26 -125 -6 -81
55 -238 116 -303 29 -30 36 -32 69 -26 66 12 76 12 106 -7 17 -10 37 -21 45
-25 8 -3 19 -12 23 -20 4 -7 12 -13 18 -13 5 0 20 -9 32 -21 32 -30 104 -79
116 -79 6 0 11 -4 11 -9 0 -5 15 -14 33 -22 17 -7 34 -14 36 -15 2 -2 -7 -16
-21 -32 -17 -21 -25 -43 -27 -78 -2 -39 -7 -54 -29 -72 -82 -69 -122 -108
-122 -119 0 -7 -5 -13 -10 -13 -6 0 -9 -5 -8 -11 2 -6 -22 -29 -52 -49 -51
-36 -164 -136 -249 -222 -48 -49 -61 -65 -61 -78 0 -5 -4 -10 -9 -10 -8 0 -17
-21 -26 -58 -2 -8 1 -27 7 -44 7 -21 7 -36 0 -51 -12 -23 -28 -81 -36 -132 -3
-17 -8 -91 -11 -165 -3 -74 -8 -171 -11 -215 -4 -44 -8 -98 -9 -120 -2 -22 -6
-73 -10 -112 l-7 -73 997 0 997 0 -7 188 c-10 305 -24 423 -60 494 -8 17 -15
43 -16 57 0 14 -4 35 -8 46 -14 35 -3 44 47 38 66 -7 129 -38 245 -120 25 -18
50 -33 55 -33 6 0 12 -3 14 -7 4 -11 226 -175 272 -202 107 -62 254 -84 350
-53 89 29 167 128 183 233 13 84 5 246 -17 344 -5 23 -12 57 -14 76 -3 19 -12
77 -21 129 -9 52 -18 106 -20 120 -2 14 -7 54 -10 90 -3 36 -8 81 -10 100 -5
45 -40 144 -65 187 -13 23 -18 47 -16 76 3 36 -20 200 -39 275 -3 12 -13 22
-23 23 -9 0 0 7 21 14 35 13 95 50 107 66 3 3 14 19 25 34 11 14 28 36 38 47
9 12 17 27 17 35 0 7 4 13 9 13 5 0 14 13 21 30 7 16 21 40 31 52 23 28 26 32
64 83 16 22 40 51 52 65 13 14 23 30 23 37 0 7 5 13 10 13 6 0 10 6 10 14 0 8
5 16 10 18 6 2 13 16 15 31 4 20 -1 34 -19 52 -13 13 -30 22 -37 21 -28 -5
-59 -18 -59 -24 0 -4 -14 -23 -30 -42 -39 -45 -41 -49 -70 -90 -23 -33 -58
-70 -67 -70 -6 0 0 9 74 117 35 51 63 97 63 103 0 5 4 10 8 10 5 0 15 12 23
28 8 15 22 36 31 46 10 10 15 23 12 28 -3 4 0 8 5 8 6 0 11 7 11 15 0 8 5 15
10 15 6 0 10 13 10 30 0 61 -76 92 -117 48 -29 -32 -93 -126 -93 -136 0 -5 -9
-17 -20 -27 -11 -10 -20 -24 -20 -31 0 -7 -3 -14 -7 -16 -10 -4 -53 -65 -53
-73 0 -8 -27 -35 -34 -35 -6 0 19 51 47 95 6 11 31 50 53 86 23 36 45 76 49
88 3 11 11 21 16 21 6 0 8 4 5 9 -4 5 -2 11 2 13 11 4 62 113 62 132 0 42 -75
71 -111 43 -18 -14 -109 -161 -109 -176 0 -6 -4 -11 -9 -11 -5 0 -15 -16 -21
-35 -6 -19 -16 -35 -21 -35 -5 0 -9 -5 -9 -11 0 -6 -13 -31 -30 -56 -17 -24
-30 -48 -30 -52 0 -5 -7 -11 -15 -15 -19 -7 -19 -9 10 52 14 29 25 56 25 62 0
5 5 10 11 10 5 0 7 5 4 10 -3 6 -2 10 4 10 5 0 17 21 27 48 10 26 23 54 29 62
7 8 19 36 27 61 14 41 14 48 -1 67 -20 26 -63 37 -88 24 -10 -6 -29 -32 -42
-59 -13 -26 -32 -60 -42 -74 -10 -14 -16 -29 -12 -33 3 -3 0 -6 -7 -6 -7 0
-11 -2 -8 -5 10 -11 -126 -264 -151 -279 -12 -8 -37 32 -50 81 -20 74 -64 112
-139 119 -25 3 -40 -3 -58 -21 -33 -33 -30 -54 12 -108 52 -67 63 -106 60
-221 -4 -123 15 -238 54 -327 33 -74 40 -125 16 -116 -8 3 -19 0 -24 -6 -15
-19 -9 -302 7 -321 8 -9 10 -24 5 -38 -25 -74 -29 -114 -28 -275 l2 -163 -31
22 c-17 12 -94 84 -172 160 -77 75 -156 151 -175 168 -39 35 -144 90 -171 90
-10 0 -26 12 -36 28 -10 15 -22 30 -28 34 -18 13 -153 9 -192 -6 -21 -8 -65
-20 -98 -27 -33 -6 -80 -19 -105 -28 -33 -13 -51 -15 -62 -8 -13 9 -8 18 36
61 59 59 93 99 121 141 21 32 74 132 75 140 0 3 0 6 1 8 1 5 8 33 13 56 7 31
9 32 48 35 18 2 36 4 40 5 34 7 37 293 3 365 -18 37 -47 61 -59 49 -13 -13 -5
33 10 62 28 51 29 199 4 302 -34 137 -82 224 -171 312 -86 86 -109 105 -109
94 0 -4 -4 -3 -8 3 -9 14 -102 68 -102 60 0 -4 -10 -1 -22 6 -13 7 -26 13 -30
14 -5 1 -9 2 -10 4 -3 2 -11 4 -58 15 -43 10 -144 20 -170 17z"/>
</g>
</svg>
