<?xml version="1.0" standalone="no"?>
<!DOCTYPE svg PUBLIC "-//W3C//DTD SVG 20010904//EN"
 "http://www.w3.org/TR/2001/REC-SVG-20010904/DTD/svg10.dtd">
<svg version="1.0" xmlns="http://www.w3.org/2000/svg"
 width="384.000000pt" height="384.000000pt" viewBox="0 0 384.000000 384.000000"
 preserveAspectRatio="xMidYMid meet">
<metadata>
Created by potrace 1.14, written by Peter Selinger 2001-2017
</metadata>
<g transform="translate(0.000000,384.000000) scale(0.100000,-0.100000)"
fill="#000000" stroke="none">
<path d="M1600 3118 c-19 -5 -42 -16 -51 -24 -13 -11 -25 -12 -79 0 -53 10
-77 10 -130 0 -87 -16 -94 -18 -100 -24 -3 -3 -32 -18 -65 -35 -67 -33 -204
-162 -251 -235 -41 -64 -90 -169 -99 -210 -4 -19 -10 -39 -14 -45 -3 -5 -6
-23 -6 -40 0 -16 -3 -34 -6 -40 -6 -12 -3 -97 6 -175 4 -30 20 -98 37 -150 17
-52 30 -117 31 -145 0 -27 6 -67 13 -87 7 -21 10 -38 6 -38 -4 0 -2 -4 3 -8 6
-4 21 -31 35 -60 32 -72 73 -106 114 -97 17 4 38 8 46 9 19 4 82 -27 99 -48 8
-9 20 -16 27 -16 8 0 19 -9 26 -20 7 -11 17 -20 21 -20 5 0 23 -11 39 -26 17
-14 53 -36 80 -50 l49 -25 -25 -32 c-17 -23 -23 -44 -22 -75 1 -32 -3 -44 -16
-48 -23 -7 -138 -122 -138 -138 0 -7 -26 -30 -57 -52 -31 -21 -85 -66 -119
-99 -34 -33 -78 -73 -97 -90 -20 -16 -37 -35 -37 -42 0 -6 -4 -13 -8 -15 -4
-2 -18 -20 -31 -40 -19 -31 -21 -43 -12 -73 7 -28 5 -47 -10 -89 -22 -64 -28
-110 -34 -284 -2 -70 -7 -154 -10 -187 -3 -33 -8 -85 -10 -115 -3 -30 -6 -72
-8 -93 l-4 -37 912 0 911 0 -2 98 c-10 327 -23 447 -56 519 -11 22 -18 47 -17
55 1 7 -1 21 -5 30 -15 35 -3 53 34 51 45 -3 110 -24 110 -35 0 -4 5 -8 10 -8
9 0 202 -125 235 -152 76 -62 152 -118 162 -118 6 0 13 -4 15 -8 4 -11 86 -48
123 -56 17 -3 41 -9 55 -12 57 -13 190 6 190 27 0 5 6 9 13 9 16 0 59 47 83
90 30 56 41 124 38 223 -4 92 -5 110 -20 189 -4 24 -8 48 -9 53 -1 6 -3 12 -4
15 -2 3 -4 14 -5 25 -6 41 -17 112 -26 165 -5 30 -12 84 -15 120 -7 86 -25
172 -37 188 -6 6 -8 12 -4 12 3 0 -7 24 -23 53 -18 33 -26 59 -21 67 8 13 8
19 -4 95 -25 161 -30 177 -49 184 -15 6 -11 10 22 20 54 16 114 76 175 176 27
44 70 107 96 140 120 155 134 183 107 219 -22 31 -66 23 -101 -16 -54 -62 -71
-82 -90 -113 -25 -39 -46 -59 -53 -52 -3 3 1 13 8 21 30 33 39 46 39 55 0 5 6
16 13 23 8 7 33 45 58 83 24 39 47 72 51 73 4 2 8 8 8 13 0 5 12 28 26 50 22
36 24 45 14 69 -8 20 -22 31 -42 36 -27 5 -36 1 -69 -32 -21 -22 -38 -43 -39
-47 0 -5 -25 -45 -55 -89 -30 -44 -55 -82 -55 -84 0 -3 -5 -10 -10 -17 -6 -7
-17 -21 -25 -32 -9 -13 -13 -15 -11 -5 3 17 28 73 36 80 8 7 83 130 100 165 8
17 18 32 21 35 12 10 48 88 53 114 5 29 -32 67 -62 61 -9 -2 -22 -4 -27 -4
-12 -1 -95 -123 -95 -139 0 -6 -6 -17 -12 -24 -7 -8 -21 -29 -31 -48 -35 -65
-52 -95 -57 -100 -3 -3 -14 -18 -24 -33 -22 -36 -31 -30 -12 9 8 16 16 36 18
44 2 8 16 34 31 58 16 23 30 50 32 60 1 10 12 33 24 53 40 68 33 113 -21 127
-38 10 -63 -11 -93 -78 -10 -22 -22 -40 -27 -40 -5 0 -7 -4 -3 -9 3 -5 -2 -17
-11 -25 -8 -9 -13 -16 -10 -16 10 0 -93 -195 -118 -225 l-26 -30 -19 25 c-11
13 -19 27 -19 30 4 50 -44 115 -96 128 -35 10 -85 -1 -98 -20 -14 -24 -8 -55
17 -84 51 -59 59 -91 61 -224 1 -69 5 -136 8 -150 3 -14 9 -38 12 -55 3 -16 9
-34 13 -40 3 -5 6 -12 6 -15 1 -3 9 -23 19 -45 20 -46 18 -90 -4 -90 -16 0
-19 -20 -19 -130 -1 -117 4 -165 16 -170 10 -3 10 -11 2 -32 -20 -50 -24 -95
-24 -250 0 -133 -2 -150 -15 -140 -40 31 -103 91 -196 185 -56 56 -106 102
-112 102 -5 0 -12 6 -15 14 -7 18 -113 80 -152 90 -17 4 -41 21 -55 37 -23 27
-32 30 -80 31 -61 1 -120 -9 -120 -21 0 -4 -6 -8 -12 -8 -36 0 -102 -14 -150
-31 -50 -18 -78 -19 -78 -4 0 4 33 41 73 84 74 78 135 181 157 266 7 28 16 42
28 43 76 3 82 16 77 163 -3 131 -4 135 -24 184 -12 29 -22 36 -43 34 -14 -2
-16 27 -3 51 49 96 32 271 -42 426 -26 55 -56 95 -112 152 -43 43 -88 83 -102
89 -13 5 -39 19 -56 30 -18 11 -33 17 -33 14 0 -4 -6 -2 -12 3 -48 38 -258 63
-338 41z"/>
</g>
</svg>
